<svg width="34" height="44" viewBox="0 0 34 44" fill="none" xmlns="http://www.w3.org/2000/svg">
<g clip-path="url(#clip0_9_11)">
<g clip-path="url(#clip1_9_11)">
<path d="M17 0C26.3917 0 34 7.53433 34 16.8347C34 29.5249 19.3587 42.4714 18.7259 42.9841L17 44.4938L15.2741 42.9841C14.6413 42.4714 0 29.5249 0 16.8347C0 7.53575 7.60829 0 17 0Z" fill="#EC0000"/>
</g>
<g clip-path="url(#clip2_9_11)">
<path fill-rule="evenodd" clip-rule="evenodd" d="M22 19.5C23.0355 19.5 23.875 20.3395 23.875 21.375C23.875 22.4105 23.0355 23.25 22 23.25C20.9645 23.25 20.125 22.4105 20.125 21.375C20.125 20.3395 20.9645 19.5 22 19.5ZM11.375 19.5C12.4105 19.5 13.25 20.3395 13.25 21.375C13.25 22.4105 12.4105 23.25 11.375 23.25C10.3395 23.25 9.5 22.4105 9.5 21.375C9.5 20.3395 10.3395 19.5 11.375 19.5ZM18.875 11.375L23.25 15.75H27V21.375H25.125C25.125 19.6491 23.7259 18.25 22 18.25C20.2741 18.25 18.875 19.6491 18.875 21.375H14.5C14.5 19.6491 13.1009 18.25 11.375 18.25C9.64911 18.25 8.25 19.6491 8.25 21.375H7V15.75L11.375 11.375H18.875ZM18.25 12.625H15.125V15.75H21.3512L18.25 12.625ZM13.875 12.625H12L8.875 15.75H13.875V12.625Z" fill="white"/>
</g>
</g>
<defs>
<clipPath id="clip0_9_11">
<rect width="34" height="44" fill="white"/>
</clipPath>
<clipPath id="clip1_9_11">
<rect width="34" height="44.4938" fill="white"/>
</clipPath>
<clipPath id="clip2_9_11">
<rect width="20" height="20" fill="white" transform="translate(7 7)"/>
</clipPath>
</defs>
</svg>
