<?xml version="1.0" encoding="UTF-8"?>
<svg width="220px" height="220px" viewBox="0 0 220 220" version="1.1" xmlns="http://www.w3.org/2000/svg" xmlns:xlink="http://www.w3.org/1999/xlink">
    <!-- Generator: Sketch 56.2 (81672) - https://sketch.com -->
    <title>stap2-stuur-plan-in@1x</title>
    <desc>Created with Sketch.</desc>
    <g id="Symbols" stroke="none" stroke-width="1" fill="none" fill-rule="evenodd">
        <g id="Hoe-werkt-het-uitgeklapt" transform="translate(-470.000000, -60.000000)" fill-rule="nonzero">
            <g id="stap2-stuur-plan-in">
                <g transform="translate(470.000000, 60.000000)">
                    <g id="stap2-plan" fill="#FFFFFF">
                        <rect id="Rectangle-11-Copy" x="0" y="0" width="220" height="220" rx="110"></rect>
                    </g>
                    <g id="idea-envelope" transform="translate(42.000000, 48.000000)">
                        <g id="Group-6" stroke="#000000" stroke-width="3">
                            <path d="M1.5,53.8688982 L1.5,122.5 L134.5,122.5 L134.5,53.8688982 L68,15.7291923 L1.5,53.8688982 Z" id="Rectangle-2-Copy-2" fill="#FEC813"></path>
                            <rect id="Rectangle-2" fill="#F3F3F4" x="20.5" y="1.5" width="95" height="103" rx="5"></rect>
                            <path d="M1.5,55.6559713 L1.5,122.5 L134.5,122.5 L134.5,55.6559713 L68,95.7515595 L1.5,55.6559713 Z" id="Rectangle-2-Copy" fill="#FFFFFF"></path>
                        </g>
                        <g id="Group-6-Copy" transform="translate(47.000000, 14.000000)">
                            <path d="M3.35337567,35.8211222 C3.08316407,35.4719319 2.82374747,35.1160516 2.610498,34.8027032 C2.46773143,34.6126546 2.32243173,34.4223006 2.17459821,34.2316423 L1.96964089,33.9673124 L1.91899772,33.7416412 C-0.302783135,30.1111595 -1.5,25.9098649 -1.5,21.53125 C-1.5,8.81971303 8.56509021,-1.5 21,-1.5 C33.4349098,-1.5 43.5,8.81971303 43.5,21.53125 C43.5,25.8452267 42.3380351,29.9880992 40.1763265,33.5844603 C40.087242,33.7734322 40.0171729,33.9148781 39.9724995,34.0012997 L39.8946811,34.1518413 L39.7852374,34.2812267 C39.7146556,34.3646691 39.6446571,34.4481519 39.5752419,34.5316751 C39.0379222,35.3346588 38.4513804,36.1022525 37.8194712,36.8297005 C34.4240003,41.6968195 32.9684078,46.6938093 33.4144639,51.8712462 L33.5547873,53.5 L8.43241052,53.5 L8.58658146,51.8596395 C9.06284216,46.7922823 7.3402702,41.4558471 3.35337567,35.8211222 Z" id="Combined-Shape" stroke="#000000" stroke-width="3" fill="#FFFFFF" stroke-linecap="round" stroke-linejoin="round"></path>
                            <rect id="Rectangle-14" fill="#000000" x="12" y="59" width="18" height="2.8" rx="1"></rect>
                            <rect id="Rectangle-14-Copy" fill="#000000" x="14" y="65" width="14" height="2.8" rx="1"></rect>
                        </g>
                    </g>
                </g>
            </g>
        </g>
    </g>
</svg>